<svg xmlns="http://www.w3.org/2000/svg" width="30" height="30" viewBox="0 0 32 32"><path d="M0 16q0-3.23 1.28-6.2t3.4-5.13 5.11-3.39T16 0q3.26 0 6.24 1.28t5.09 3.4 3.39 5.11T32 16v6.02q0 2.5-1.76 4.22T26.02 28q-2.28 0-3.94-1.47t-1.98-3.68Q18.14 24 16 24q-2.18 0-4-1.06t-2.94-2.9T8 16q0-3.3 2.34-5.63T16 8t5.66 2.37T24 16v6.02q0 .8.6 1.4t1.42.58q.8 0 1.4-.58t.58-1.4V16q0-3.26-1.6-6.02t-4.38-4.35T16 4 9.98 5.63 5.6 9.98 4 16t1.6 6.05 4.38 4.35T16 28h2.02q.8 0 1.4.6t.58 1.42-.58 1.4-1.4.58H16q-3.26 0-6.2-1.25t-5.13-3.42-3.39-5.12T0 16zm12 0q0 1.66 1.18 2.85T16 20t2.82-1.15T20 16t-1.18-2.82T16 12t-2.82 1.18T12 16z"/></svg>