<svg xmlns="http://www.w3.org/2000/svg" xml:space="preserve" viewBox="0 0 1000 1000">
  <path fill="#FFF"
        d="M45 622c15-4 30 4 34 18a446 446 0 0 0 68 128l2 3a306 306 0 0 0 16 20 467 467 0 0 0 64 60l3 2a366 366 0 0 0 36 25 470 470 0 0 0 92 43c14 4 22 19 18 34s-20 24-36 19A502 502 0 0 1 26 658c-6-15 3-32 19-36zM951 379c-13 3-25-4-29-16a452 452 0 0 0-69-131l-2-3-5-7-11-13a467 467 0 0 0-64-60l-3-3a366 366 0 0 0-36-24 470 470 0 0 0-95-44c-13-4-20-16-16-29l2-8c4-14 17-21 30-17l17 6a497 497 0 0 1 306 317c4 13-3 26-16 30l-9 2zM379 49c3 13-4 25-16 29a452 452 0 0 0-131 69l-3 2-7 5-13 11a467 467 0 0 0-60 64l-3 3a366 366 0 0 0-24 36 470 470 0 0 0-44 95c-4 13-16 20-29 16l-8-2c-14-4-21-17-17-30l6-17A497 497 0 0 1 347 24c13-4 26 3 30 16l2 9zM622 955c4 16 21 25 36 20a507 507 0 0 0 316-317c6-15-3-32-19-36-15-4-30 4-34 18a467 467 0 0 1-63 121l-4 7-3 3-11 13a487 487 0 0 1-62 62l-7 5-3 2a441 441 0 0 1-128 68c-14 4-22 19-18 34z"/>
</svg>