<?xml version="1.0" encoding="utf-8"?>
<svg version="1.1" xmlns="http://www.w3.org/2000/svg" x="0" y="0"
	 viewBox="0 0 1000 1000" style="enable-background:new 0 0 1000 1000;" xml:space="preserve">
<path fill="#FFFFFF" d="M45.3,621.8c14.4-3.9,29.3,4.2,34,18.4c3.5,10.7,7.4,21.3,11.7,31.7c10.1,23.4,22,45.9,35.7,67.4
	c6.3,9.9,13.1,19.6,20.1,29c0.7,0.9,1.4,1.9,2.1,2.8c1.7,2.2,3.5,4.4,5.3,6.6c3.6,4.5,7.4,8.9,11.2,13.2
	c15.5,17.7,32.3,34.2,50.2,49.3c4.5,3.8,9,7.4,13.6,11c1,0.8,2,1.5,3,2.3c2.1,1.6,4.3,3.2,6.5,4.8c9.6,6.9,19.4,13.4,29.4,19.6
	c19.2,11.8,39.2,22.1,59.8,31c10.5,4.3,21.2,8.2,31.9,11.8c14.2,4.7,22.2,19.6,18.4,34l0,0c-4.2,15.6-20.6,24.5-35.9,19.5
	c-17.1-5.6-33.9-12.2-50.5-19.7c-45.4-20.5-87.4-48.5-124.6-81.5c-37.2-33-69.5-72.1-95.3-114.6C52.8,727,37.2,693.2,25.5,658.1
	c-5.1-15.4,3.7-32,19.4-36.2L45.3,621.8z"/>
<path fill="#FFFFFF" d="M950.8,379.2c-12.3,3.3-25-3.7-28.9-15.8c-3.8-11.9-8.1-23.7-12.9-35.3c-10.1-23.4-22-45.9-35.7-67.4
	c-6.3-9.9-13.1-19.6-20.1-29c-0.7-0.9-1.4-1.9-2.1-2.8c-1.7-2.2-3.5-4.4-5.3-6.6c-3.6-4.5-7.4-8.9-11.2-13.2
	c-15.5-17.7-32.3-34.2-50.2-49.3c-4.5-3.8-9-7.4-13.6-11c-1-0.8-2-1.5-3-2.3c-2.1-1.6-4.3-3.2-6.5-4.8c-9.6-6.9-19.4-13.4-29.4-19.6
	c-19.2-11.8-39.2-22.1-59.8-31c-11.7-4.8-23.5-9.1-35.5-12.9c-12.2-3.9-19.1-16.6-15.8-28.9l2.3-8.6c3.5-13.2,17.4-20.7,30.3-16.5
	c5.6,1.8,11.1,3.7,16.7,5.7c47.1,17.3,91.5,41,131.3,71.5C842.8,133,878.8,170,909,212.6c29,40.8,51.5,86.4,67,134.1
	c0,0.1,0.1,0.2,0.1,0.2c4.2,12.8-3.4,26.5-16.4,30L950.8,379.2z"/>
<path fill="#FFFFFF" d="M379.2,49.2c3.3,12.3-3.7,25-15.8,28.9c-11.9,3.8-23.7,8.1-35.3,12.9c-23.4,10.1-45.9,22-67.4,35.7
	c-9.9,6.3-19.6,13.1-29,20.1c-0.9,0.7-1.9,1.4-2.8,2.1c-2.2,1.7-4.4,3.5-6.6,5.3c-4.5,3.6-8.9,7.4-13.2,11.2
	c-17.7,15.5-34.2,32.3-49.3,50.2c-3.8,4.5-7.4,9-11,13.6c-0.8,1-1.5,2-2.3,3c-1.6,2.1-3.2,4.3-4.8,6.5c-6.9,9.6-13.4,19.4-19.6,29.4
	c-11.8,19.2-22.1,39.2-31,59.8c-4.8,11.7-9.1,23.5-12.9,35.5c-3.9,12.2-16.6,19.1-28.9,15.8l-8.6-2.3c-13.2-3.5-20.7-17.4-16.5-30.3
	c1.8-5.6,3.7-11.1,5.7-16.7c17.3-47.1,41-91.5,71.5-131.3C133,157.2,170,121.2,212.6,91c40.8-29,86.4-51.5,134.1-67
	c0.1,0,0.2-0.1,0.2-0.1c12.8-4.2,26.5,3.4,30,16.4L379.2,49.2z"/>
<path fill="#FFFFFF" d="M621.9,955c4.2,15.7,20.8,24.7,36.2,19.5c29.5-9.9,58.2-22.5,85.3-37.6c43.5-24.2,83.6-55.3,118-91.3
	c34.3-35.9,63.6-77.1,85.7-121.6c10.6-21.3,19.8-43.3,27.3-65.8c5.2-15.5-3.7-32.1-19.5-36.3h0c-14.5-3.9-29.5,4.2-34.2,18.4
	c-3.5,10.7-7.4,21.3-11.7,31.8c-8.9,20.6-19.2,40.7-31,59.8c-6.2,10-12.7,19.9-19.6,29.4c-1.6,2.2-3.2,4.3-4.8,6.5
	c-0.7,1-1.5,2-2.3,3c-3.6,4.6-7.3,9.1-11,13.6c-15.2,17.9-31.7,34.7-49.3,50.2c-4.3,3.8-8.7,7.5-13.2,11.2c-2.2,1.8-4.4,3.5-6.6,5.3
	c-0.9,0.7-1.9,1.4-2.8,2.1c-9.4,7.1-19.1,13.8-29,20.1c-21.5,13.7-44,25.6-67.4,35.7c-10.4,4.3-21,8.2-31.6,11.7
	c-14.2,4.7-22.3,19.7-18.5,34.2L621.9,955z"/>
</svg>
