<?xml version="1.0" encoding="utf-8"?>
<svg version="1.1" xmlns="http://www.w3.org/2000/svg" x="0" y="0"
	 viewBox="0 0 1000 1000" style="enable-background:new 0 0 1000 1000;" xml:space="preserve">
<path fill="#FFFFFF" d="M753,500c-0.3-7.8-2.9-15.8-8.8-21.2c-5.9-5.4-13.1-8.8-21.2-8.8c-4,0-8,0-12,0c-10.8,0-21.6,0-32.4,0
	c-16,0-32,0-48,0c-19.5,0-39.1,0-58.6,0c-14,0-28,0-42,0c0-9,0-18,0-27c0-20.1,0-40.1,0-60.2c0-17,0-34,0-51c0-12.2,0-24.5,0-36.7
	c0-5.8,0-11.6,0-17.3c0-0.3,0-0.5,0-0.8c0-7.7-3.3-15.8-8.8-21.2c-5.2-5.2-13.7-9.1-21.2-8.8c-7.8,0.3-15.8,2.9-21.2,8.8
	c-5.4,5.9-8.8,13.1-8.8,21.2c0,4,0,8,0,12c0,10.8,0,21.6,0,32.4c0,16,0,32,0,48c0,19.5,0,39.1,0,58.6c0,14,0,28,0,42c-9,0-18,0-27,0
	c-20.1,0-40.1,0-60.2,0c-17,0-34,0-51,0c-12.2,0-24.5,0-36.7,0c-5.8,0-11.6,0-17.3,0c-0.3,0-0.5,0-0.8,0c-7.7,0-15.8,3.3-21.2,8.8
	c-5.2,5.2-9.1,13.7-8.8,21.2c0.3,7.8,2.9,15.8,8.8,21.2c5.9,5.4,13.1,8.8,21.2,8.8c4,0,8,0,12,0c10.8,0,21.6,0,32.4,0
	c16,0,32,0,48,0c19.5,0,39.1,0,58.6,0c14,0,28,0,42,0c0,9,0,18,0,27c0,20.1,0,40.1,0,60.2c0,17,0,34,0,51c0,12.2,0,24.5,0,36.7
	c0,5.8,0,11.6,0,17.3c0,0.3,0,0.5,0,0.8c0,7.7,3.3,15.8,8.8,21.2c5.2,5.2,13.7,9.1,21.2,8.8c7.8-0.3,15.8-2.9,21.2-8.8
	c5.4-5.9,8.8-13.1,8.8-21.2c0-4,0-8,0-12c0-10.8,0-21.6,0-32.4c0-16,0-32,0-48c0-19.5,0-39.1,0-58.6c0-14,0-28,0-42c9,0,18,0,27,0
	c20.1,0,40.1,0,60.2,0c17,0,34,0,51,0c12.2,0,24.5,0,36.7,0c5.8,0,11.6,0,17.3,0c0.3,0,0.5,0,0.8,0c7.7,0,15.8-3.3,21.2-8.8
	C749.4,516,753.3,507.5,753,500z"/>
</svg>
